<svg xmlns="http://www.w3.org/2000/svg" data-name="Layer 1" viewBox="0 0 24 24" width="512" height="512"><path d="M17.98 9.376L12 8.18V3.107A3.081 3.081 0 009.5.041 3 3 0 006 3v6.661L3.211 13.3a5.021 5.021 0 00.249 6.794l2.4 2.425A5.036 5.036 0 009.414 24H17a5.006 5.006 0 005-5v-4.721a5.013 5.013 0 00-4.02-4.903zM20 19a3 3 0 01-3 3H9.414a3.022 3.022 0 01-2.134-.891l-2.4-2.428a3.03 3.03 0 01-.116-4.123L6 12.945V17a1 1 0 002 0V3a1 1 0 011.176-.985A1.082 1.082 0 0110 3.107V9a1 1 0 00.8.98l6.784 1.357A3.01 3.01 0 0120 14.279z"/></svg>